<svg height="480pt" viewBox="0 -16 480.00003 480" width="480pt" xmlns="http://www.w3.org/2000/svg" xmlns:xlink="http://www.w3.org/1999/xlink"><linearGradient id="a"><stop offset="0" stop-color="#12c2e9"/><stop offset=".5" stop-color="#c471ed"/><stop offset="1" stop-color="#f64f59"/></linearGradient><linearGradient id="b" gradientUnits="userSpaceOnUse" x1="236.712035" x2="242.040035" xlink:href="#a" y1="549.206109" y2="-133.457891"/><linearGradient id="c" gradientUnits="userSpaceOnUse" x1="149.024035" x2="154.360035" xlink:href="#a" y1="548.526109" y2="-134.145891"/><linearGradient id="d" gradientUnits="userSpaceOnUse" x1="325.016035" x2="330.352035" xlink:href="#a" y1="549.902109" y2="-132.769891"/><linearGradient id="e" gradientUnits="userSpaceOnUse" x1="237.648035" x2="242.984035" xlink:href="#a" y1="549.214109" y2="-133.449891"/><path d="m352 .0078125c-46.570312.2187495-89.394531 25.5624995-112 66.2773435-28.140625-51.183594-87.378906-76.800781-143.945312-62.253906-56.570313 14.546875-96.0976568 65.566406-96.054688 123.976562 0 137.40625 164.671875 320 240 320s240-182.59375 240-320c-.082031-70.660156-57.34375-127.9179682-128-127.9999995zm-112 431.9999995c-60 0-224-172.347656-224-304-.03125-54.015624 38.511719-100.347656 91.628906-110.148437 53.117188-9.796875 105.65625 19.734375 124.898438 70.203125 1.183594 3.097656 4.15625 5.140625 7.472656 5.140625s6.289062-2.042969 7.472656-5.140625c19.242188-50.46875 71.78125-80 124.898438-70.203125 53.117187 9.800781 91.660156 56.132813 91.628906 110.148437 0 131.652344-164 304-224 304zm0 0" fill="url(#b)"/><path d="m176 168.007812c0 13.253907-10.746094 24-24 24s-24-10.746093-24-24c0-13.257812 10.746094-24 24-24s24 10.742188 24 24zm0 0" fill="url(#c)"/><path d="m352 168.007812c0 13.253907-10.746094 24-24 24s-24-10.746093-24-24c0-13.257812 10.746094-24 24-24s24 10.742188 24 24zm0 0" fill="url(#d)"/><path d="m296 240.007812c-4.417969 0-8 3.578126-8 8 0 22.054688-21.527344 40-48 40s-48-17.945312-48-40c0-4.421874-3.582031-8-8-8s-8 3.578126-8 8c0 30.878907 28.710938 56 64 56s64-25.121093 64-56c0-4.421874-3.582031-8-8-8zm0 0" fill="url(#e)"/></svg>